<mxfile host="app.diagrams.net" modified="2023-05-08T20:16:03.141Z" agent="5.0 (Windows NT 10.0; Win64; x64) AppleWebKit/537.36 (KHTML, like Gecko) Chrome/113.0.0.0 Safari/537.36 Edg/113.0.1774.35" version="20.8.4" etag="V--l_EC1Fiw4n6Ru26wL" type="github">
  <diagram id="_q8vq6ji1zuHJidh-hMm" name="第 1 页">
    <mxGraphModel dx="2308" dy="837" grid="0" gridSize="10" guides="1" tooltips="1" connect="1" arrows="1" fold="1" page="0" pageScale="1" pageWidth="827" pageHeight="1169" background="none" math="0" shadow="0">
      <root>
        <mxCell id="0" />
        <mxCell id="1" parent="0" />
        <mxCell id="R99Nt5e2oEKja0-q-oq--59" style="edgeStyle=orthogonalEdgeStyle;rounded=0;orthogonalLoop=1;jettySize=auto;html=1;exitX=0.5;exitY=1;exitDx=0;exitDy=0;entryX=0.5;entryY=0;entryDx=0;entryDy=0;" edge="1" parent="1" source="R99Nt5e2oEKja0-q-oq--12" target="R99Nt5e2oEKja0-q-oq--18">
          <mxGeometry relative="1" as="geometry" />
        </mxCell>
        <mxCell id="R99Nt5e2oEKja0-q-oq--12" value="电器" style="ellipse;whiteSpace=wrap;html=1;aspect=fixed;" vertex="1" parent="1">
          <mxGeometry x="-421" y="216" width="42" height="42" as="geometry" />
        </mxCell>
        <mxCell id="R99Nt5e2oEKja0-q-oq--13" value="食物" style="ellipse;whiteSpace=wrap;html=1;" vertex="1" parent="1">
          <mxGeometry x="-591" y="216" width="45" height="44" as="geometry" />
        </mxCell>
        <mxCell id="R99Nt5e2oEKja0-q-oq--14" value="肉" style="ellipse;whiteSpace=wrap;html=1;" vertex="1" parent="1">
          <mxGeometry x="-591" y="319.5" width="44" height="42" as="geometry" />
        </mxCell>
        <mxCell id="R99Nt5e2oEKja0-q-oq--70" style="edgeStyle=orthogonalEdgeStyle;rounded=0;orthogonalLoop=1;jettySize=auto;html=1;exitX=0.5;exitY=1;exitDx=0;exitDy=0;" edge="1" parent="1" source="R99Nt5e2oEKja0-q-oq--15" target="R99Nt5e2oEKja0-q-oq--17">
          <mxGeometry relative="1" as="geometry" />
        </mxCell>
        <mxCell id="R99Nt5e2oEKja0-q-oq--15" value="电脑" style="ellipse;whiteSpace=wrap;html=1;" vertex="1" parent="1">
          <mxGeometry x="90" y="313" width="45" height="44" as="geometry" />
        </mxCell>
        <mxCell id="R99Nt5e2oEKja0-q-oq--60" style="edgeStyle=orthogonalEdgeStyle;rounded=0;orthogonalLoop=1;jettySize=auto;html=1;exitX=0.5;exitY=1;exitDx=0;exitDy=0;entryX=0.5;entryY=0;entryDx=0;entryDy=0;" edge="1" parent="1" source="R99Nt5e2oEKja0-q-oq--16" target="R99Nt5e2oEKja0-q-oq--23">
          <mxGeometry relative="1" as="geometry" />
        </mxCell>
        <mxCell id="R99Nt5e2oEKja0-q-oq--16" value="蔬菜" style="ellipse;whiteSpace=wrap;html=1;" vertex="1" parent="1">
          <mxGeometry x="-421" y="316.5" width="50" height="45" as="geometry" />
        </mxCell>
        <mxCell id="R99Nt5e2oEKja0-q-oq--17" value="苹果电脑" style="ellipse;whiteSpace=wrap;html=1;" vertex="1" parent="1">
          <mxGeometry x="355" y="432" width="46" height="43" as="geometry" />
        </mxCell>
        <mxCell id="R99Nt5e2oEKja0-q-oq--64" style="edgeStyle=orthogonalEdgeStyle;rounded=0;orthogonalLoop=1;jettySize=auto;html=1;exitX=0.5;exitY=1;exitDx=0;exitDy=0;" edge="1" parent="1" source="R99Nt5e2oEKja0-q-oq--18" target="R99Nt5e2oEKja0-q-oq--21">
          <mxGeometry relative="1" as="geometry" />
        </mxCell>
        <mxCell id="R99Nt5e2oEKja0-q-oq--18" value="手机" style="ellipse;whiteSpace=wrap;html=1;" vertex="1" parent="1">
          <mxGeometry x="-200" y="319.5" width="47" height="38.5" as="geometry" />
        </mxCell>
        <mxCell id="R99Nt5e2oEKja0-q-oq--19" value="牛肉" style="ellipse;whiteSpace=wrap;html=1;" vertex="1" parent="1">
          <mxGeometry x="-592" y="436" width="45" height="42" as="geometry" />
        </mxCell>
        <mxCell id="R99Nt5e2oEKja0-q-oq--20" value="羊肉" style="ellipse;whiteSpace=wrap;html=1;" vertex="1" parent="1">
          <mxGeometry x="-461" y="432" width="46" height="46" as="geometry" />
        </mxCell>
        <mxCell id="R99Nt5e2oEKja0-q-oq--21" value="小米手机" style="ellipse;whiteSpace=wrap;html=1;" vertex="1" parent="1">
          <mxGeometry x="17" y="436" width="44" height="43" as="geometry" />
        </mxCell>
        <mxCell id="R99Nt5e2oEKja0-q-oq--22" value="华硕电脑" style="ellipse;whiteSpace=wrap;html=1;" vertex="1" parent="1">
          <mxGeometry x="517" y="433.5" width="44" height="40" as="geometry" />
        </mxCell>
        <mxCell id="R99Nt5e2oEKja0-q-oq--23" value="胡萝卜" style="ellipse;whiteSpace=wrap;html=1;" vertex="1" parent="1">
          <mxGeometry x="-292" y="445" width="47" height="45" as="geometry" />
        </mxCell>
        <mxCell id="R99Nt5e2oEKja0-q-oq--24" value="卷心菜" style="ellipse;whiteSpace=wrap;html=1;" vertex="1" parent="1">
          <mxGeometry x="-160" y="445" width="48" height="46" as="geometry" />
        </mxCell>
        <mxCell id="R99Nt5e2oEKja0-q-oq--25" value="超市" style="ellipse;whiteSpace=wrap;html=1;direction=west;" vertex="1" parent="1">
          <mxGeometry x="-591" y="114" width="45" height="41" as="geometry" />
        </mxCell>
        <mxCell id="R99Nt5e2oEKja0-q-oq--26" value="华为手机" style="ellipse;whiteSpace=wrap;html=1;" vertex="1" parent="1">
          <mxGeometry x="163" y="433.5" width="46" height="46" as="geometry" />
        </mxCell>
        <mxCell id="R99Nt5e2oEKja0-q-oq--34" value="" style="endArrow=classic;html=1;rounded=0;entryX=0;entryY=0.5;entryDx=0;entryDy=0;" edge="1" parent="1" source="R99Nt5e2oEKja0-q-oq--19" target="R99Nt5e2oEKja0-q-oq--20">
          <mxGeometry width="50" height="50" relative="1" as="geometry">
            <mxPoint x="-154" y="581" as="sourcePoint" />
            <mxPoint x="-104" y="531" as="targetPoint" />
          </mxGeometry>
        </mxCell>
        <mxCell id="R99Nt5e2oEKja0-q-oq--37" value="" style="endArrow=classic;html=1;rounded=0;exitX=1;exitY=0.5;exitDx=0;exitDy=0;entryX=0;entryY=0.5;entryDx=0;entryDy=0;" edge="1" parent="1" source="R99Nt5e2oEKja0-q-oq--14" target="R99Nt5e2oEKja0-q-oq--16">
          <mxGeometry width="50" height="50" relative="1" as="geometry">
            <mxPoint x="-154" y="581" as="sourcePoint" />
            <mxPoint x="-104" y="531" as="targetPoint" />
          </mxGeometry>
        </mxCell>
        <mxCell id="R99Nt5e2oEKja0-q-oq--50" value="" style="endArrow=classic;html=1;rounded=0;entryX=0.5;entryY=0;entryDx=0;entryDy=0;" edge="1" parent="1" source="R99Nt5e2oEKja0-q-oq--25" target="R99Nt5e2oEKja0-q-oq--13">
          <mxGeometry width="50" height="50" relative="1" as="geometry">
            <mxPoint x="-154" y="583" as="sourcePoint" />
            <mxPoint x="-554" y="227" as="targetPoint" />
          </mxGeometry>
        </mxCell>
        <mxCell id="R99Nt5e2oEKja0-q-oq--51" value="" style="endArrow=classic;html=1;rounded=0;exitX=0.5;exitY=1;exitDx=0;exitDy=0;" edge="1" parent="1" source="R99Nt5e2oEKja0-q-oq--13" target="R99Nt5e2oEKja0-q-oq--14">
          <mxGeometry width="50" height="50" relative="1" as="geometry">
            <mxPoint x="-570" y="272" as="sourcePoint" />
            <mxPoint x="-104" y="533" as="targetPoint" />
          </mxGeometry>
        </mxCell>
        <mxCell id="R99Nt5e2oEKja0-q-oq--52" value="" style="endArrow=classic;html=1;rounded=0;exitX=0.5;exitY=1;exitDx=0;exitDy=0;" edge="1" parent="1" source="R99Nt5e2oEKja0-q-oq--14" target="R99Nt5e2oEKja0-q-oq--19">
          <mxGeometry width="50" height="50" relative="1" as="geometry">
            <mxPoint x="-154" y="583" as="sourcePoint" />
            <mxPoint x="-104" y="533" as="targetPoint" />
          </mxGeometry>
        </mxCell>
        <mxCell id="R99Nt5e2oEKja0-q-oq--57" value="" style="endArrow=classic;html=1;rounded=0;exitX=1;exitY=0.5;exitDx=0;exitDy=0;entryX=0;entryY=0.5;entryDx=0;entryDy=0;" edge="1" parent="1" source="R99Nt5e2oEKja0-q-oq--13" target="R99Nt5e2oEKja0-q-oq--12">
          <mxGeometry width="50" height="50" relative="1" as="geometry">
            <mxPoint x="-154" y="457" as="sourcePoint" />
            <mxPoint x="-104" y="407" as="targetPoint" />
          </mxGeometry>
        </mxCell>
        <mxCell id="R99Nt5e2oEKja0-q-oq--66" value="" style="endArrow=classic;html=1;rounded=0;exitX=1;exitY=0.5;exitDx=0;exitDy=0;entryX=0;entryY=0.5;entryDx=0;entryDy=0;" edge="1" parent="1" source="R99Nt5e2oEKja0-q-oq--18" target="R99Nt5e2oEKja0-q-oq--15">
          <mxGeometry width="50" height="50" relative="1" as="geometry">
            <mxPoint x="48" y="459" as="sourcePoint" />
            <mxPoint x="98" y="409" as="targetPoint" />
          </mxGeometry>
        </mxCell>
        <mxCell id="R99Nt5e2oEKja0-q-oq--67" value="" style="endArrow=classic;html=1;rounded=0;exitX=1;exitY=0.5;exitDx=0;exitDy=0;" edge="1" parent="1" source="R99Nt5e2oEKja0-q-oq--23" target="R99Nt5e2oEKja0-q-oq--24">
          <mxGeometry width="50" height="50" relative="1" as="geometry">
            <mxPoint x="48" y="459" as="sourcePoint" />
            <mxPoint x="98" y="409" as="targetPoint" />
          </mxGeometry>
        </mxCell>
        <mxCell id="R99Nt5e2oEKja0-q-oq--68" value="" style="endArrow=classic;html=1;rounded=0;exitX=1;exitY=0.5;exitDx=0;exitDy=0;entryX=0;entryY=0.5;entryDx=0;entryDy=0;" edge="1" parent="1" source="R99Nt5e2oEKja0-q-oq--21" target="R99Nt5e2oEKja0-q-oq--26">
          <mxGeometry width="50" height="50" relative="1" as="geometry">
            <mxPoint x="48" y="459" as="sourcePoint" />
            <mxPoint x="98" y="409" as="targetPoint" />
          </mxGeometry>
        </mxCell>
        <mxCell id="R99Nt5e2oEKja0-q-oq--69" value="" style="endArrow=classic;html=1;rounded=0;entryX=0;entryY=0.5;entryDx=0;entryDy=0;" edge="1" parent="1" target="R99Nt5e2oEKja0-q-oq--22">
          <mxGeometry width="50" height="50" relative="1" as="geometry">
            <mxPoint x="405" y="454" as="sourcePoint" />
            <mxPoint x="98" y="409" as="targetPoint" />
          </mxGeometry>
        </mxCell>
      </root>
    </mxGraphModel>
  </diagram>
</mxfile>
